<?xml version="1.0" encoding="iso-8859-1"?>
<!-- Generator: Adobe Illustrator 21.1.0, SVG Export Plug-In . SVG Version: 6.00 Build 0)  -->
<svg version="1.1" id="Layer_1" xmlns="http://www.w3.org/2000/svg" xmlns:xlink="http://www.w3.org/1999/xlink" x="0px" y="0px"
	 viewBox="0 0 38.25 35" style="enable-background:new 0 0 38.25 35;" xml:space="preserve">
<path style="fill:#FFFFFF;" d="M38.086,33.038L20.285,0.686C20.053,0.263,19.608,0,19.125,0c-0.482,0-0.927,0.263-1.159,0.686
	L0.164,33.038c-0.225,0.41-0.218,0.909,0.02,1.312C0.422,34.753,0.856,35,1.324,35h35.603c0.468,0,0.901-0.247,1.14-0.65
	C38.304,33.947,38.312,33.448,38.086,33.038L38.086,33.038z M3.564,32.352L19.125,4.071l15.562,28.281H3.564z M3.564,32.352"/>
<path style="fill:#FFFFFF;" d="M17.466,13.531v9.57c0,0.916,0.743,1.659,1.659,1.659c0.916,0,1.66-0.743,1.66-1.659v-9.57
	c0-0.916-0.743-1.659-1.66-1.659C18.209,11.872,17.466,12.614,17.466,13.531L17.466,13.531z M17.466,13.531"/>
<path style="fill:#FFFFFF;" d="M19.125,26.483c-0.963,0-1.748,0.784-1.748,1.748c0,0.963,0.784,1.748,1.748,1.748
	c0.964,0,1.748-0.784,1.748-1.748C20.873,27.267,20.089,26.483,19.125,26.483L19.125,26.483z M19.125,26.483"/>
</svg>
