<?xml version="1.0" encoding="utf-8"?>
<!-- Generator: Adobe Illustrator 21.1.0, SVG Export Plug-In . SVG Version: 6.00 Build 0)  -->
<svg version="1.1" id="Capa_1" xmlns="http://www.w3.org/2000/svg" xmlns:xlink="http://www.w3.org/1999/xlink" x="0px" y="0px"
	 viewBox="150 328.6 114 136.8" style="enable-background:new 150 328.6 114 136.8;" xml:space="preserve">
<style type="text/css">
	.st0{fill:#A1A1A1;}
</style>
<path class="st0" d="M263.6,444l-9.8-16.3c-4.5-7.5-6.9-16.2-6.9-24.9v-14.3c0-18-12-33.3-28.5-38.2V340c0-6.3-5.1-11.4-11.4-11.4
	c-6.3,0-11.4,5.1-11.4,11.4v10.2c-16.5,4.9-28.5,20.2-28.5,38.2v14.3c0,8.8-2.4,17.4-6.9,24.9l-9.8,16.3c-0.5,0.9-0.5,2,0,2.9
	c0.5,0.9,1.4,1.4,2.5,1.4h108.3c1,0,2-0.6,2.5-1.4C264.1,446,264.1,444.9,263.6,444z"/>
<path class="st0" d="M207,465.4c7.9,0,14.7-4.7,17.9-11.4h-35.9C192.3,460.7,199.1,465.4,207,465.4z"/>
</svg>
