<?xml version="1.0" encoding="iso-8859-1"?>
<!-- Generator: Adobe Illustrator 21.1.0, SVG Export Plug-In . SVG Version: 6.00 Build 0)  -->
<svg version="1.1" id="Layer_1" xmlns="http://www.w3.org/2000/svg" xmlns:xlink="http://www.w3.org/1999/xlink" x="0px" y="0px"
	 viewBox="0 0 28.823 34.302" style="enable-background:new 0 0 28.823 34.302;" xml:space="preserve">
<path style="fill:#FFFFFF;" d="M28.786,8.832c-0.017-0.926-0.034-1.801-0.034-2.648c0-0.663-0.537-1.201-1.201-1.201
	c-5.135,0-9.044-1.476-12.303-4.644c-0.466-0.453-1.208-0.453-1.674,0C10.315,3.508,6.406,4.984,1.272,4.984
	c-0.663,0-1.201,0.538-1.201,1.201c0,0.847-0.016,1.722-0.034,2.648c-0.165,8.618-0.39,20.422,13.98,25.403
	c0.127,0.044,0.26,0.066,0.393,0.066c0.133,0,0.266-0.023,0.393-0.066C29.176,29.254,28.951,17.451,28.786,8.832L28.786,8.832z
	 M14.411,31.828C2.086,27.35,2.273,17.542,2.438,8.878c0.01-0.52,0.02-1.023,0.027-1.518c4.809-0.202,8.655-1.66,11.946-4.527
	c3.292,2.868,7.139,4.325,11.948,4.527c0.007,0.494,0.016,0.998,0.027,1.517C26.55,17.542,26.737,27.35,14.411,31.828L14.411,31.828
	z M14.411,31.828"/>
<path style="fill:#FFFFFF;" d="M18.546,12.981l-5.795,5.795l-2.472-2.473c-0.469-0.468-1.23-0.468-1.698,0
	c-0.469,0.469-0.469,1.229,0,1.699l3.321,3.321c0.235,0.235,0.542,0.352,0.849,0.352s0.615-0.117,0.849-0.352l6.644-6.643
	c0.469-0.469,0.469-1.23,0-1.698C19.775,12.511,19.015,12.511,18.546,12.981L18.546,12.981z M18.546,12.981"/>
</svg>
