<svg id="Ñëîé_1" data-name="Ñëîé 1" xmlns="http://www.w3.org/2000/svg" viewBox="0 0 498.62 377.34"><defs><style>.cls-1{opacity:0.1;}.cls-2{fill:#d38f18;}.cls-3{fill:#efa818;}.cls-4{fill:#f8ebec;}.cls-5{fill:#a4a2ba;}.cls-6{fill:#fff;}.cls-7{fill:#27b6ff;}.cls-8{fill:#f6eaf0;}.cls-9{fill:#d5cbd6;}.cls-10{fill:#1873b9;}.cls-11{fill:#f7636c;}.cls-12{fill:#d66400;}.cls-13{fill:#b8bed1;}.cls-14{fill:#9fa5b5;}.cls-15{fill:#3c2f40;}.cls-16{fill:#e9e6ed;}.cls-17{fill:#606060;}.cls-18{fill:#f59784;}.cls-19{fill:#ffa897;}.cls-20{fill:#4a3a4f;}.cls-21{fill:#fbf7ff;}.cls-22,.cls-23{fill:#3f3f3f;}.cls-23{opacity:0.2;}.cls-24{fill:#383838;}.cls-25{fill:#9fa3b8;}.cls-26{fill:#9497ab;}.cls-27{fill:#dbbdab;}.cls-28{fill:#f0cfbb;}.cls-29{fill:#b39a8b;}.cls-30{fill:#a68f81;}.cls-31{fill:#c7ac9b;}.cls-32{fill:#403345;}</style></defs><title>splash_screen_illus</title><path class="cls-1" d="M490.62,361.34H332.22a8,8,0,0,0-7.53-10.67H174a8,8,0,0,0-7.53,10.67H8a8,8,0,0,0-8,8H0a8,8,0,0,0,8,8H490.62a8,8,0,0,0,8-8h0A8,8,0,0,0,490.62,361.34Z"/><path class="cls-2" d="M137.65,228.34h-12.2a3.16,3.16,0,0,1-3.16-3.16h0a3.16,3.16,0,0,1,3.16-3.16h12.2a2,2,0,0,0,2-2V210.9a2,2,0,0,0-2-2h-12.2a3.16,3.16,0,0,1-3.16-3.16h0a3.16,3.16,0,0,1,3.16-3.16h12.2A8.36,8.36,0,0,1,146,210.9V220A8.35,8.35,0,0,1,137.65,228.34Z"/><rect class="cls-3" x="95.33" y="192.35" width="35.15" height="44.73"/><rect class="cls-2" x="123.33" y="192.35" width="7.15" height="44.73"/><rect class="cls-2" x="98.08" y="192.35" width="10.4" height="44.73"/><rect class="cls-4" x="381.84" y="201.09" width="71.12" height="36"/><rect class="cls-5" x="452.96" y="201.09" width="9.88" height="36" transform="translate(915.8 438.17) rotate(180)"/><rect class="cls-4" x="379.84" y="176.09" width="71.12" height="25"/><rect class="cls-5" x="450.96" y="176.09" width="9.88" height="25" transform="translate(911.8 377.17) rotate(180)"/><rect class="cls-4" x="383.84" y="167.09" width="71.12" height="9"/><rect class="cls-5" x="454.96" y="167.09" width="9.88" height="9" transform="translate(919.8 343.17) rotate(180)"/><rect class="cls-4" x="381.84" y="151.59" width="71.12" height="15.5"/><rect class="cls-5" x="452.96" y="151.59" width="9.88" height="15.5" transform="translate(915.8 318.67) rotate(180)"/><polygon class="cls-5" points="450.96 178.83 450.96 176.09 434.55 176.09 431.34 176.32 450.96 178.83"/><polygon class="cls-5" points="452.96 203.83 452.96 201.09 441.71 201.09 439.5 201.32 452.96 203.83"/><line class="cls-4" x1="452.96" y1="167.09" x2="381.84" y2="167.09"/><polygon class="cls-6" points="431.42 167.09 399.41 167.09 407.67 171.15 431.42 167.09"/><polygon class="cls-7" points="428.42 233.41 428.42 216.17 354.4 216.17 354.4 212.5 438.56 212.5 438.56 237.09 354.4 237.09 354.4 233.41 428.42 233.41"/><rect class="cls-8" x="359.4" y="216.17" width="75.93" height="17.24" transform="translate(794.73 449.58) rotate(180)"/><rect class="cls-9" x="359.4" y="216.17" width="75.93" height="3.41" transform="translate(794.73 435.75) rotate(180)"/><path class="cls-10" d="M435.33,216.17s-10.11,6,0,17.24"/><polygon class="cls-3" points="434.42 208.65 434.42 190.6 360.4 190.6 360.4 186.75 444.56 186.75 444.56 212.5 360.4 212.5 360.4 208.65 434.42 208.65"/><rect class="cls-8" x="365.4" y="190.6" width="75.93" height="18.05" transform="translate(806.73 399.25) rotate(180)"/><polygon class="cls-11" points="383.59 203.1 378.84 201.1 374.09 203.1 374.09 194.17 383.59 194.17 383.59 203.1"/><rect class="cls-9" x="365.4" y="190.6" width="75.93" height="3.57" transform="translate(806.73 384.77) rotate(180)"/><path class="cls-12" d="M441.33,190.6s-10.11,6.3,0,18"/><rect class="cls-13" x="237.9" y="301.03" width="22.86" height="38.09"/><rect class="cls-14" x="237.9" y="296.17" width="22.86" height="13.63"/><path class="cls-13" d="M242.3,336.34l-57.57,7.9a6.69,6.69,0,0,1-7.48-6.64h0a6.69,6.69,0,0,1,5.9-6.64l59.15-8.09Z"/><path class="cls-13" d="M256.36,336.78l57.57,7.9a6.69,6.69,0,0,0,7.48-6.64h0a6.69,6.69,0,0,0-5.9-6.64l-59.15-8.09Z"/><path class="cls-15" d="M209.41,282h79.84a0,0,0,0,1,0,0v13.65a7.68,7.68,0,0,1-7.68,7.68H217.09a7.68,7.68,0,0,1-7.68-7.68V282A0,0,0,0,1,209.41,282Z"/><path class="cls-3" d="M171.33,257.36h156a0,0,0,0,1,0,0v21.33a12,12,0,0,1-12,12h-132a12,12,0,0,1-12-12V257.36A0,0,0,0,1,171.33,257.36Z"/><path class="cls-2" d="M187.51,252.27H311.15a0,0,0,0,1,0,0v16.91a9.51,9.51,0,0,1-9.51,9.51H197a9.51,9.51,0,0,1-9.51-9.51V252.27A0,0,0,0,1,187.51,252.27Z"/><path class="cls-3" d="M171.33,91.69h156a0,0,0,0,1,0,0V233.36a12,12,0,0,1-12,12h-132a12,12,0,0,1-12-12V91.69A0,0,0,0,1,171.33,91.69Z" transform="translate(498.66 337.05) rotate(180)"/><path class="cls-2" d="M187.51,109.36H311.15a0,0,0,0,1,0,0V229.85a9.51,9.51,0,0,1-9.51,9.51H197a9.51,9.51,0,0,1-9.51-9.51V109.36A0,0,0,0,1,187.51,109.36Z" transform="translate(498.66 348.72) rotate(180)"/><path class="cls-16" d="M200.56,161.53A179.61,179.61,0,0,1,175.1,146c-19.14-14.16-28-28.37-26.22-42.25C152,78.87,186.06,69.13,211.4,64l4.79,23.52c-41.66,8.48-43.44,18.83-43.49,19.27-.32,2.56,2.77,9.62,16.43,19.77A157.22,157.22,0,0,0,211,139.94Z"/><path class="cls-16" d="M300,161.53A179.6,179.6,0,0,0,325.41,146c19.14-14.16,28-28.37,26.22-42.25C348.5,78.87,314.45,69.13,289.11,64l-4.79,23.52C326,96,327.76,106.33,327.82,106.76c.32,2.56-2.77,9.62-16.43,19.77a157.22,157.22,0,0,1-21.91,13.41Z"/><path class="cls-17" d="M191.37,77.9s-18-56.92,16.07-51.43,52.19-4.39,69.07-7.4c26.15-4.66,40.73,8,28.89,60.78Z"/><path class="cls-18" d="M307.85,89.67l-117,.32a6.67,6.67,0,0,1-6.69-6.65h0a6.67,6.67,0,0,1,6.65-6.69l117-.32A6.67,6.67,0,0,1,314.5,83h0A6.67,6.67,0,0,1,307.85,89.67Z"/><path class="cls-19" d="M273.68,272.57l-47.77.3a23.21,23.21,0,0,1-23.21-22.08L193.07,71.3a34.85,34.85,0,0,1,34.36-37.12l41.75-.26A34.85,34.85,0,0,1,304,70.61l-7.4,179.6A23.21,23.21,0,0,1,273.68,272.57Z"/><path class="cls-20" d="M201.77,233.46l.93,17.33a23.21,23.21,0,0,0,23.21,22.08l47.77-.3a23.21,23.21,0,0,0,22.93-22.37l.72-17.39Z"/><path class="cls-20" d="M226.15,353.75l-10-86.16a7,7,0,1,0-14,.39l10,85.78Z"/><polygon class="cls-7" points="229.01 359.67 225.93 351.42 212.39 351.42 199.68 363.67 229.01 359.67"/><polygon class="cls-16" points="202.55 247.95 296.73 247.32 301.41 133.78 250.73 148.5 196.46 134.49 202.55 247.95"/><polygon class="cls-7" points="250.73 148.5 239.15 154.52 247.7 160.94 253.95 160.91 260.96 155.3 250.73 148.5"/><polygon class="cls-21" points="196.46 134.49 229.62 160.38 250.73 148.5 268.74 160.38 301.41 133.78 250.73 148.5 196.46 134.49"/><polygon class="cls-7" points="247.7 160.94 240.47 218.03 250.94 228.32 261.53 218.84 253.95 160.91 247.7 160.94"/><path class="cls-22" d="M221.63,50.16C187.75,43.72,191.79,4.09,229.26.44c6.31-.61-6.89,8.26-4.09,9.36a45.22,45.22,0,0,1,39.67-8.27c3.91,1-12,7.9-7.7,7,18.68-3.87,28,2.1,26.92,4.27s-14.82,4.29-1.67,19.64C289.9,41.2,265.71,58.55,221.63,50.16Z"/><path class="cls-22" d="M225.93,68.58a13.53,13.53,0,0,0-15.53-.2,1.5,1.5,0,1,0,1.73,2.45c.06,0,6.08-4.2,12,.17a1.5,1.5,0,1,0,1.78-2.42Z"/><circle class="cls-23" cx="214.13" cy="104.24" r="7.33" transform="translate(-4.41 9.6) rotate(-2.54)"/><path class="cls-22" d="M272.74,68.58a13.53,13.53,0,0,1,15.53-.2,1.5,1.5,0,1,1-1.73,2.45c-.06,0-6.08-4.2-12,.17a1.5,1.5,0,1,1-1.78-2.42Z"/><circle class="cls-23" cx="284.54" cy="104.24" r="7.33" transform="translate(167.77 383.88) rotate(-87.46)"/><path class="cls-24" d="M249.67,122.32c-11.72,0-21.25-7.23-21.25-16.12a1,1,0,0,1,2,0c0,7.79,8.64,14.13,19.25,14.13s19.25-6.34,19.25-14.12a1,1,0,0,1,2,0C270.92,115.08,261.39,122.32,249.67,122.32Z"/><path class="cls-20" d="M193.11,263.54l84-21.69a7,7,0,1,1,4.68,13.2l-83.62,21.55Z"/><polygon class="cls-7" points="186.55 263 195.35 262.9 200.23 275.54 187.38 293.8 186.55 263"/><path class="cls-25" d="M181,229.66H317.66a0,0,0,0,1,0,0v4.8a3,3,0,0,1-3,3H186a5,5,0,0,1-5-5v-2.8A0,0,0,0,1,181,229.66Z"/><path class="cls-13" d="M181,226.13H317.66a0,0,0,0,1,0,0V229a2.49,2.49,0,0,1-2.49,2.49H183.48A2.49,2.49,0,0,1,181,229v-2.87A0,0,0,0,1,181,226.13Z" transform="translate(498.66 457.62) rotate(180)"/><path class="cls-26" d="M181,233.69v.77c0,2.76,2.24,3,5,3H312.66c2.76,0,5-.24,5-3v-.77Z"/><circle class="cls-20" cx="189.99" cy="352.38" r="6.81"/><circle class="cls-20" cx="308.67" cy="352.38" r="6.81"/><rect class="cls-27" x="8.11" y="237.03" width="482.67" height="26"/><rect class="cls-28" x="8.11" y="237.03" width="482.67" height="8"/><rect class="cls-27" x="18.11" y="263.03" width="20" height="103.64"/><rect class="cls-27" x="460.78" y="263.03" width="20" height="103.64"/><rect class="cls-4" x="56.84" y="300.63" width="71.12" height="54"/><rect class="cls-5" x="127.96" y="300.63" width="9.88" height="54" transform="translate(265.8 655.25) rotate(180)"/><rect class="cls-4" x="60.84" y="291.63" width="71.12" height="9"/><rect class="cls-5" x="131.96" y="291.63" width="9.88" height="9" transform="translate(273.8 592.25) rotate(180)"/><rect class="cls-4" x="58.84" y="276.13" width="71.12" height="15.5"/><rect class="cls-5" x="129.96" y="276.13" width="9.88" height="15.5" transform="translate(269.8 567.75) rotate(180)"/><polygon class="cls-5" points="127.96 303.37 127.96 300.63 111.55 300.63 108.34 300.86 127.96 303.37"/><line class="cls-4" x1="129.96" y1="291.63" x2="58.84" y2="291.63"/><polygon class="cls-6" points="108.41 291.63 76.41 291.63 84.67 295.69 108.41 291.63"/><rect class="cls-29" x="50.01" y="310.17" width="83.67" height="56.5"/><rect class="cls-30" x="132.34" y="310.17" width="10.5" height="56.5" transform="translate(275.18 676.84) rotate(180)"/><path class="cls-30" d="M102.43,326H81.25A3.94,3.94,0,0,1,77.31,322h0a3.94,3.94,0,0,1,3.94-3.94h21.18a3.94,3.94,0,0,1,3.94,3.94h0A3.94,3.94,0,0,1,102.43,326Z"/><path class="cls-4" d="M106.37,322a3.94,3.94,0,0,0-3.94-3.94H90.92a3.94,3.94,0,0,0,0,7.88h11.51A3.94,3.94,0,0,0,106.37,322Z"/><rect class="cls-31" x="18.11" y="263.03" width="20" height="10.98"/><rect class="cls-31" x="460.78" y="263.03" width="20" height="10.98"/><polygon class="cls-4" points="392.92 289.66 388.79 291.32 383.28 292.42 382.73 296 383.55 299.59 379.97 304.82 391.27 306.48 395.96 304.27 400.64 305.1 401.47 300.41 398.44 297.11 400.09 294.07 392.92 289.66"/><polygon class="cls-9" points="429.87 279.73 432.54 287.07 429.21 305.73 420.54 308.4 429.87 279.73"/><polygon class="cls-4" points="406.54 309.73 407.87 293.07 413.87 290.07 420.87 287.4 423.21 280.07 429.87 279.73 424.21 310.73 406.54 309.73"/><polygon class="cls-20" points="424.67 366.67 383 366.67 375 294.67 432.67 294.67 424.67 366.67"/><polygon class="cls-32" points="412.34 366.67 424.67 366.67 432.67 294.67 412.34 294.67 412.34 366.67"/><polygon class="cls-4" points="367.04 349.86 362.91 351.51 357.4 352.61 356.85 356.19 357.67 359.78 354.09 365.01 365.39 366.67 370.08 364.46 374.76 365.29 375.59 360.61 372.56 357.3 374.21 354.26 367.04 349.86"/><path class="cls-22" d="M223.37,83a1.5,1.5,0,0,1-1.59-.52c-1-1.31-2.54-2.83-3.87-2.59-1.58.3-2.92,2.94-3.33,4.19a1.5,1.5,0,1,1-2.85-.93c.18-.57,1.91-5.56,5.66-6.21,2.25-.4,4.52.85,6.76,3.7a1.5,1.5,0,0,1-.78,2.37Z"/><path class="cls-22" d="M275.25,83a1.5,1.5,0,0,0,1.59-.52c1-1.31,2.54-2.83,3.87-2.59,1.58.3,2.92,2.94,3.33,4.19a1.5,1.5,0,0,0,2.85-.93c-.18-.57-1.91-5.56-5.66-6.21-2.25-.4-4.52.85-6.76,3.7a1.5,1.5,0,0,0,.78,2.37Z"/></svg>