<?xml version="1.0" encoding="utf-8"?>
<!-- Generator: Adobe Illustrator 21.1.0, SVG Export Plug-In . SVG Version: 6.00 Build 0)  -->
<svg version="1.1" id="Layer_1" xmlns="http://www.w3.org/2000/svg" xmlns:xlink="http://www.w3.org/1999/xlink" x="0px" y="0px"
	 viewBox="0 0 17 19" style="enable-background:new 0 0 17 19;" xml:space="preserve">
<style type="text/css">
	.st0{fill:#FFFFFF;}
</style>
<g>
	<path class="st0" d="M8.4,0L4.6,3.8C4.2,4.2,4.3,4.4,4.9,4.4H7V9c0,0.8,0.6,1.4,1.4,1.4c0.8,0,1.4-0.6,1.4-1.4l0-4.6H12
		c0.5,0,0.6-0.3,0.2-0.6L8.4,0z M8.4,0"/>
	<path class="st0" d="M16.6,9.3h-2.2c-0.2,0-0.4,0.2-0.4,0.4v6.4H2.9V9.6c0-0.2-0.2-0.4-0.4-0.4H0.4C0.2,9.3,0,9.4,0,9.6V17
		c0,1.1,0.9,2,2,2h13c1.1,0,2-0.9,2-2V9.6C17,9.4,16.8,9.3,16.6,9.3L16.6,9.3z M16.6,9.3"/>
</g>
</svg>
