<?xml version="1.0" encoding="utf-8"?>
<!-- Generator: Adobe Illustrator 21.1.0, SVG Export Plug-In . SVG Version: 6.00 Build 0)  -->
<svg version="1.1" id="Layer_1" xmlns="http://www.w3.org/2000/svg" xmlns:xlink="http://www.w3.org/1999/xlink" x="0px" y="0px"
	 viewBox="0 0 25 19" style="enable-background:new 0 0 25 19;" xml:space="preserve">
<style type="text/css">
	.st0{fill:#FFFFFF;}
</style>
<g>
	<path class="st0" d="M21.9,0H3.1C1.4,0,0,1.4,0,3.1V16C0,17.7,1.4,19,3.1,19h18.9c1.7,0,3.1-1.4,3.1-3.1V3.1C25,1.4,23.6,0,21.9,0
		L21.9,0z M23.6,16c0,0.9-0.7,1.7-1.7,1.7H3.1c-0.9,0-1.7-0.7-1.7-1.7V3.1c0-0.9,0.7-1.7,1.7-1.7h18.9c0.9,0,1.7,0.7,1.7,1.7
		L23.6,16L23.6,16z M23.6,16"/>
	<path class="st0" d="M15.8,9.4l6.1-5.5c0.3-0.3,0.3-0.7,0.1-1c-0.3-0.3-0.7-0.3-1-0.1l-8.4,7.6l-1.6-1.5c0,0,0,0,0,0
		c0,0-0.1-0.1-0.1-0.1l-6.7-6c-0.3-0.3-0.7-0.2-1,0.1c-0.3,0.3-0.2,0.7,0.1,1l6.2,5.5l-6.2,5.8c-0.3,0.3-0.3,0.7,0,1
		c0.1,0.1,0.3,0.2,0.5,0.2c0.2,0,0.3-0.1,0.5-0.2l6.3-5.9l1.7,1.5c0.1,0.1,0.3,0.2,0.5,0.2c0.2,0,0.3-0.1,0.5-0.2l1.7-1.6l6.2,5.9
		c0.1,0.1,0.3,0.2,0.5,0.2c0.2,0,0.4-0.1,0.5-0.2c0.3-0.3,0.3-0.7,0-1L15.8,9.4z M15.8,9.4"/>
</g>
</svg>
