<?xml version="1.0" encoding="utf-8"?>
<!-- Generator: Adobe Illustrator 21.1.0, SVG Export Plug-In . SVG Version: 6.00 Build 0)  -->
<svg version="1.1" id="artboard_2" xmlns="http://www.w3.org/2000/svg" xmlns:xlink="http://www.w3.org/1999/xlink" x="0px" y="0px"
	 viewBox="0 0 98.7 140.5" style="enable-background:new 0 0 98.7 140.5;" xml:space="preserve">
<style type="text/css">
	.st0{fill:#565656;}
	.st1{fill:#27B3FE;}
	.st2{fill:#2094DD;}
	.st3{fill:#083172;}
	.st4{fill:#FFCE00;}
	.st5{fill:#1462A6;}
	.st6{fill:#DFB06E;}
	.st7{fill:#E09C4B;}
</style>
<g>
	<g>
		<polygon class="st0" points="43.7,104.7 45.5,121.6 47.5,121.6 45.6,104.5 		"/>
		<polygon class="st0" points="55.1,104.7 53.1,104.5 51.3,121.6 53.3,121.6 		"/>
	</g>
	<polygon class="st0" points="38.9,121.6 35.3,105 37.4,105 41,121.6 	"/>
	<polygon class="st0" points="59.8,121.6 63.4,105 61.4,105 57.8,121.6 	"/>
</g>
<path class="st1" d="M84.2,14.5L84.2,14.5C74.6,4.8,62,0,49.3,0S24.1,4.8,14.5,14.5h0C-4.8,33.7-4.8,65,14.5,84.2L35.2,105h14.1
	h14.1l20.8-20.8C103.5,65,103.5,33.7,84.2,14.5z"/>
<path class="st2" d="M72.1,14.5L72.1,14.5C65.8,4.8,57.6,0,49.3,0c-8.2,0-16.5,4.8-22.8,14.5l0,0C14,33.7,14,65,26.6,84.2L40.1,105
	h9.2h9.2l13.6-20.8C84.7,65,84.7,33.7,72.1,14.5z"/>
<path class="st3" d="M58.7,14.5L58.7,14.5C56.1,4.8,52.7,0,49.3,0C46,0,42.6,4.8,40,14.5l0,0c-5.2,19.3-5.2,50.5,0,69.8l5.6,20.8
	h3.8h3.8l5.6-20.8C63.8,65,63.8,33.7,58.7,14.5z"/>
<path class="st4" d="M84.4,89.7H14.3c-1.5,0-2.7-1.2-2.7-2.7l0,0c0-1.5,1.2-2.7,2.7-2.7h70.1c1.5,0,2.7,1.2,2.7,2.7l0,0
	C87.1,88.5,85.9,89.7,84.4,89.7z"/>
<g>
	<g>
		<polygon class="st5" points="23.8,100.5 30.2,89.7 17.4,89.7 		"/>
		<polygon class="st5" points="36.6,100.5 43,89.7 30.1,89.7 		"/>
		<polygon class="st5" points="49.3,100.5 55.8,89.7 42.9,89.7 		"/>
		<polygon class="st5" points="62.1,100.5 68.5,89.7 55.7,89.7 		"/>
		<polygon class="st5" points="74.9,100.5 81.3,89.7 68.5,89.7 		"/>
	</g>
</g>
<path class="st6" d="M62.5,121.6H36.1v17.5c0,0.8,0.6,1.4,1.4,1.4h23.6c0.8,0,1.4-0.6,1.4-1.4V121.6z"/>
<g>
	<g>
		<path class="st0" d="M52.6,128.5c-2.2,0-4-1.8-4-4c0-0.4,0.3-0.8,0.8-0.8c0.4,0,0.8,0.3,0.8,0.8c0,1.4,1.1,2.5,2.5,2.5
			c1.4,0,2.5-1.1,2.5-2.5c0-0.4,0.3-0.8,0.8-0.8c0.4,0,0.8,0.3,0.8,0.8C56.6,126.6,54.8,128.5,52.6,128.5z"/>
	</g>
	<g>
		<path class="st0" d="M59.2,128.5c-2.2,0-4-1.8-4-4c0-0.4,0.3-0.8,0.8-0.8c0.4,0,0.8,0.3,0.8,0.8c0,1.4,1.1,2.5,2.5,2.5
			c1.4,0,2.5-1.1,2.5-2.5c0-0.4,0.3-0.8,0.8-0.8s0.8,0.3,0.8,0.8C63.2,126.6,61.4,128.5,59.2,128.5z"/>
	</g>
	<g>
		<path class="st0" d="M39.5,128.5c-2.2,0-4-1.8-4-4c0-0.4,0.3-0.8,0.8-0.8c0.4,0,0.8,0.3,0.8,0.8c0,1.4,1.1,2.5,2.5,2.5
			c1.4,0,2.5-1.1,2.5-2.5c0-0.4,0.3-0.8,0.8-0.8s0.8,0.3,0.8,0.8C43.5,126.6,41.7,128.5,39.5,128.5z"/>
	</g>
	<g>
		<path class="st0" d="M46.1,128.5c-2.2,0-4-1.8-4-4c0-0.4,0.3-0.8,0.8-0.8s0.8,0.3,0.8,0.8c0,1.4,1.1,2.5,2.5,2.5
			c1.4,0,2.5-1.1,2.5-2.5c0-0.4,0.3-0.8,0.8-0.8c0.4,0,0.8,0.3,0.8,0.8C50.1,126.6,48.3,128.5,46.1,128.5z"/>
	</g>
</g>
<path class="st7" d="M63.7,121.6H35c-0.8,0-1.4,0.6-1.4,1.4l0,0c0,0.8,0.6,1.4,1.4,1.4h28.8c0.8,0,1.4-0.6,1.4-1.4l0,0
	C65.1,122.2,64.5,121.6,63.7,121.6z"/>
</svg>
