<?xml version="1.0" encoding="utf-8"?>
<!-- Generator: Adobe Illustrator 21.1.0, SVG Export Plug-In . SVG Version: 6.00 Build 0)  -->
<svg version="1.1" id="Layer_1" xmlns="http://www.w3.org/2000/svg" xmlns:xlink="http://www.w3.org/1999/xlink" x="0px" y="0px"
	 viewBox="0 0 19 25.4" style="enable-background:new 0 0 19 25.4;" xml:space="preserve">
<style type="text/css">
	.st0{fill:#FFFFFF;}
</style>
<g>
	<path class="st0" d="M17.6,11.1h-0.4V7.8c0-4.3-3.5-7.8-7.8-7.8C5.2,0,1.7,3.5,1.7,7.8c0,0.4,0.3,0.7,0.7,0.7s0.7-0.3,0.7-0.7
		c0-3.5,2.8-6.3,6.3-6.3c3.5,0,6.3,2.8,6.3,6.3v3.3H1.4c-0.8,0-1.4,0.6-1.4,1.4v8.8c0,2.3,1.8,4.1,4.1,4.1h10.8
		c2.3,0,4.1-1.8,4.1-4.1v-8.8C19,11.7,18.4,11.1,17.6,11.1L17.6,11.1z M17.6,21.3c0,1.5-1.2,2.7-2.7,2.7H4.1c-1.5,0-2.7-1.2-2.7-2.7
		v-8.8h16.2V21.3z M17.6,21.3"/>
	<path class="st0" d="M9.5,21c1.5,0,2.7-1.2,2.7-2.7c0-1.5-1.2-2.7-2.7-2.7c-1.5,0-2.7,1.2-2.7,2.7C6.8,19.8,8,21,9.5,21L9.5,21z
		 M9.5,17.1c0.7,0,1.2,0.6,1.2,1.2c0,0.7-0.6,1.2-1.2,1.2c-0.7,0-1.2-0.6-1.2-1.2C8.3,17.7,8.8,17.1,9.5,17.1L9.5,17.1z M9.5,17.1"
		/>
</g>
</svg>
