<?xml version="1.0" encoding="utf-8"?>
<!-- Generator: Adobe Illustrator 21.1.0, SVG Export Plug-In . SVG Version: 6.00 Build 0)  -->
<svg version="1.1" id="Layer_1" xmlns="http://www.w3.org/2000/svg" xmlns:xlink="http://www.w3.org/1999/xlink" x="0px" y="0px"
	 viewBox="0 0 40 30.8" style="enable-background:new 0 0 40 30.8;" xml:space="preserve">
<style type="text/css">
	.st0{fill:#FFFFFF;}
</style>
<path class="st0" d="M0.5,16.9C0.1,16.6,0,16.1,0,15.8c0-0.3,0.1-0.8,0.5-1.1l2.2-2.2c0.6-0.6,1.5-0.6,2.2,0l0.2,0.2l8.5,9.1
	c0.3,0.3,0.8,0.3,1.1,0L35.1,0.5h0.2c0.6-0.6,1.5-0.6,2.2,0l2.2,2.2c0.6,0.6,0.6,1.5,0,2.2L14.9,30.3c-0.3,0.3-0.6,0.5-1.1,0.5
	c-0.5,0-0.8-0.2-1.1-0.5l-12-12.9L0.5,16.9z M0.5,16.9"/>
</svg>
